<svg width="155" height="85" viewBox="0 0 155 85" fill="none" xmlns="http://www.w3.org/2000/svg">
<path d="M14.9773 56.4462V71.378H6.64205V36.4689H14.7045V50.003H14.9943C15.5852 48.3894 16.5511 47.128 17.892 46.2189C19.2443 45.3098 20.8977 44.8553 22.8523 44.8553C24.6932 44.8553 26.2955 45.2644 27.6591 46.0826C29.0227 46.8894 30.0795 48.0314 30.8295 49.5087C31.5909 50.986 31.9659 52.7132 31.9545 54.6905V71.378H23.6193V56.3269C23.6307 54.8723 23.267 53.736 22.5284 52.9178C21.7898 52.0996 20.75 51.6905 19.4091 51.6905C18.5341 51.6905 17.7614 51.8837 17.0909 52.2701C16.4318 52.6451 15.9148 53.1848 15.5398 53.8894C15.1761 54.5939 14.9886 55.4462 14.9773 56.4462ZM44.5384 71.8212C42.8679 71.8212 41.3849 71.5428 40.0895 70.986C38.8054 70.4178 37.7884 69.5655 37.0384 68.4292C36.2997 67.2814 35.9304 65.8439 35.9304 64.1167C35.9304 62.6621 36.1861 61.4348 36.6974 60.4348C37.2088 59.4348 37.9134 58.6223 38.8111 57.9973C39.7088 57.3723 40.7429 56.9007 41.9134 56.5826C43.0838 56.253 44.3338 56.0314 45.6634 55.9178C47.152 55.7814 48.3509 55.6394 49.2599 55.4917C50.169 55.3326 50.8281 55.111 51.2372 54.8269C51.6577 54.5314 51.8679 54.1167 51.8679 53.5826V53.4973C51.8679 52.6223 51.5668 51.9462 50.9645 51.4689C50.3622 50.9917 49.5497 50.753 48.527 50.753C47.4247 50.753 46.5384 50.9917 45.8679 51.4689C45.1974 51.9462 44.7713 52.6053 44.5895 53.4462L36.902 53.1735C37.1293 51.5826 37.7145 50.1621 38.6577 48.9121C39.6122 47.6507 40.919 46.6621 42.5781 45.9462C44.2486 45.2189 46.2543 44.8553 48.5952 44.8553C50.2656 44.8553 51.8054 45.0542 53.2145 45.4519C54.6236 45.8382 55.8509 46.4064 56.8963 47.1564C57.9418 47.8951 58.7486 48.8042 59.3168 49.8837C59.8963 50.9632 60.1861 52.1962 60.1861 53.5826V71.378H52.3452V67.7303H52.1406C51.6747 68.6167 51.0781 69.3667 50.3509 69.9803C49.6349 70.5939 48.7884 71.0542 47.8111 71.361C46.8452 71.6678 45.7543 71.8212 44.5384 71.8212ZM47.1122 66.3667C48.0099 66.3667 48.8168 66.1848 49.5327 65.8212C50.2599 65.4576 50.8395 64.9576 51.2713 64.3212C51.7031 63.6735 51.919 62.9235 51.919 62.0712V59.5826C51.6804 59.7076 51.3906 59.8212 51.0497 59.9235C50.7202 60.0257 50.3565 60.1223 49.9588 60.2132C49.5611 60.3042 49.152 60.3837 48.7315 60.4519C48.3111 60.5201 47.9077 60.5826 47.5213 60.6394C46.7372 60.7644 46.0668 60.9576 45.5099 61.2189C44.9645 61.4803 44.544 61.8212 44.2486 62.2417C43.9645 62.6507 43.8224 63.1394 43.8224 63.7076C43.8224 64.5712 44.1293 65.2303 44.7429 65.6848C45.3679 66.1394 46.1577 66.3667 47.1122 66.3667ZM65.2827 71.378V36.4689H73.6179V49.6792H73.7884C74.1293 48.8837 74.6122 48.1167 75.2372 47.378C75.8736 46.6394 76.6804 46.0371 77.6577 45.5712C78.6463 45.0939 79.8281 44.8553 81.2031 44.8553C83.0213 44.8553 84.7202 45.3326 86.2997 46.2871C87.8906 47.2417 89.1747 48.7132 90.152 50.7019C91.1293 52.6905 91.6179 55.2246 91.6179 58.3042C91.6179 61.2701 91.1463 63.753 90.2031 65.753C89.2713 67.753 88.0099 69.253 86.419 70.253C84.8395 71.253 83.0838 71.753 81.152 71.753C79.8338 71.753 78.6918 71.5371 77.7259 71.1053C76.7599 70.6735 75.9474 70.1053 75.2884 69.4007C74.6406 68.6962 74.1406 67.9405 73.7884 67.1337H73.5327V71.378H65.2827ZM73.4474 58.2871C73.4474 59.6962 73.6349 60.9235 74.0099 61.9689C74.3963 63.0144 74.9474 63.8269 75.6634 64.4064C76.3906 64.9746 77.2599 65.2587 78.2713 65.2587C79.294 65.2587 80.1634 64.9746 80.8793 64.4064C81.5952 63.8269 82.1349 63.0144 82.4986 61.9689C82.8736 60.9235 83.0611 59.6962 83.0611 58.2871C83.0611 56.878 82.8736 55.6564 82.4986 54.6223C82.1349 53.5882 81.5952 52.7871 80.8793 52.2189C80.1747 51.6507 79.3054 51.3667 78.2713 51.3667C77.2486 51.3667 76.3793 51.6451 75.6634 52.2019C74.9474 52.7587 74.3963 53.5542 74.0099 54.5882C73.6349 55.6223 73.4474 56.8553 73.4474 58.2871ZM95.9858 71.378V45.1962H104.321V71.378H95.9858ZM100.162 42.1451C98.9915 42.1451 97.9858 41.7587 97.1449 40.986C96.304 40.2019 95.8835 39.2587 95.8835 38.1564C95.8835 37.0655 96.304 36.1337 97.1449 35.361C97.9858 34.5769 98.9915 34.1848 100.162 34.1848C101.344 34.1848 102.349 34.5769 103.179 35.361C104.02 36.1337 104.44 37.0655 104.44 38.1564C104.44 39.2587 104.02 40.2019 103.179 40.986C102.349 41.7587 101.344 42.1451 100.162 42.1451ZM124.405 45.1962V51.3326H107.888V45.1962H124.405ZM111.348 38.9235H119.683V63.1451C119.683 63.6564 119.763 64.0712 119.922 64.3894C120.092 64.6962 120.337 64.9178 120.655 65.0542C120.973 65.1792 121.354 65.2417 121.797 65.2417C122.115 65.2417 122.45 65.2132 122.803 65.1564C123.166 65.0882 123.439 65.0314 123.621 64.986L124.882 71.003C124.484 71.1167 123.922 71.2587 123.195 71.4292C122.479 71.5996 121.621 71.7076 120.621 71.753C118.666 71.8439 116.99 71.6167 115.592 71.0712C114.206 70.5144 113.143 69.6507 112.405 68.4803C111.678 67.3098 111.325 65.8382 111.348 64.0655V38.9235ZM151.188 53.1905L143.534 53.3951C143.455 52.8496 143.239 52.3667 142.886 51.9462C142.534 51.5144 142.074 51.1792 141.506 50.9405C140.949 50.6905 140.301 50.5655 139.562 50.5655C138.597 50.5655 137.773 50.7587 137.091 51.1451C136.42 51.5314 136.091 52.0542 136.102 52.7132C136.091 53.2246 136.295 53.6678 136.716 54.0428C137.148 54.4178 137.915 54.7189 139.017 54.9462L144.062 55.9007C146.676 56.4007 148.619 57.2303 149.892 58.3894C151.176 59.5485 151.824 61.0826 151.835 62.9917C151.824 64.7871 151.29 66.3496 150.233 67.6792C149.188 69.0087 147.756 70.0428 145.938 70.7814C144.119 71.5087 142.04 71.8723 139.699 71.8723C135.96 71.8723 133.011 71.1053 130.852 69.5712C128.705 68.0257 127.477 65.9576 127.17 63.3667L135.403 63.1621C135.585 64.1167 136.057 64.8439 136.818 65.3439C137.58 65.8439 138.551 66.0939 139.733 66.0939C140.801 66.0939 141.67 65.8951 142.341 65.4973C143.011 65.0996 143.352 64.5712 143.364 63.9121C143.352 63.3212 143.091 62.8496 142.58 62.4973C142.068 62.1337 141.267 61.8496 140.176 61.6451L135.608 60.7757C132.983 60.2985 131.028 59.4178 129.744 58.1337C128.46 56.8382 127.824 55.1905 127.835 53.1905C127.824 51.4405 128.29 49.9462 129.233 48.7076C130.176 47.4576 131.517 46.503 133.256 45.8439C134.994 45.1848 137.045 44.8553 139.409 44.8553C142.955 44.8553 145.75 45.5996 147.795 47.0882C149.841 48.5655 150.972 50.5996 151.188 53.1905Z" fill="white"/>
<rect width="116" height="16" transform="translate(4 0.378021)" fill="#09090A"/>
<g filter="url(#filter0_d_75_1093)">
<rect x="4" y="0.378021" width="16" height="16" rx="4" fill="#18181B"/>
<rect x="4.5" y="0.878021" width="15" height="15" rx="3.5" stroke="#27272A"/>
</g>
<rect x="24.5" y="0.878021" width="15" height="15" rx="3.5" fill="#713F12" stroke="#713F12"/>
<rect x="44.5" y="0.878021" width="15" height="15" rx="3.5" fill="#854D0E" stroke="#854D0E"/>
<rect x="64.5" y="0.878021" width="15" height="15" rx="3.5" fill="#CA8A04" stroke="#CA8A04"/>
<rect x="84.5" y="0.878021" width="15" height="15" rx="3.5" fill="#CA8A04" stroke="#CA8A04"/>
<rect x="104.5" y="0.878021" width="15" height="15" rx="3.5" fill="#EAB308" stroke="#EAB308"/>
<defs>
<filter id="filter0_d_75_1093" x="0" y="0.378021" width="24" height="24" filterUnits="userSpaceOnUse" color-interpolation-filters="sRGB">
<feFlood flood-opacity="0" result="BackgroundImageFix"/>
<feColorMatrix in="SourceAlpha" type="matrix" values="0 0 0 0 0 0 0 0 0 0 0 0 0 0 0 0 0 0 127 0" result="hardAlpha"/>
<feOffset dy="4"/>
<feGaussianBlur stdDeviation="2"/>
<feComposite in2="hardAlpha" operator="out"/>
<feColorMatrix type="matrix" values="0 0 0 0 0 0 0 0 0 0 0 0 0 0 0 0 0 0 0.25 0"/>
<feBlend mode="normal" in2="BackgroundImageFix" result="effect1_dropShadow_75_1093"/>
<feBlend mode="normal" in="SourceGraphic" in2="effect1_dropShadow_75_1093" result="shape"/>
</filter>
</defs>
</svg>
